<?xml version="1.0" encoding="UTF-8" standalone="no"?>
<svg
   xmlns:dc="http://purl.org/dc/elements/1.1/"
   xmlns:cc="http://creativecommons.org/ns#"
   xmlns:rdf="http://www.w3.org/1999/02/22-rdf-syntax-ns#"
   xmlns:svg="http://www.w3.org/2000/svg"
   xmlns="http://www.w3.org/2000/svg"
   xmlns:sodipodi="http://sodipodi.sourceforge.net/DTD/sodipodi-0.dtd"
   xmlns:inkscape="http://www.inkscape.org/namespaces/inkscape"
   height="55.32"
   width="238.14401"
   id="svg42"
   version="1.1"
   viewBox="0 0 238.14401 55.32"
   sodipodi:docname="jv_header 1.2.svg"
   inkscape:version="0.92.5 (2060ec1f9f, 2020-04-08)">
  <sodipodi:namedview
     pagecolor="#ffffff"
     bordercolor="#666666"
     borderopacity="1"
     objecttolerance="10"
     gridtolerance="10"
     guidetolerance="10"
     inkscape:pageopacity="0"
     inkscape:pageshadow="2"
     inkscape:window-width="1920"
     inkscape:window-height="1043"
     id="namedview26"
     showgrid="false"
     inkscape:zoom="1.7594396"
     inkscape:cx="119.07201"
     inkscape:cy="27.66"
     inkscape:window-x="0"
     inkscape:window-y="0"
     inkscape:window-maximized="1"
     inkscape:current-layer="Layer_1-2" />
  <metadata
     id="metadata46">
    <rdf:RDF>
      <cc:Work
         rdf:about="">
        <dc:format>image/svg+xml</dc:format>
        <dc:type
           rdf:resource="http://purl.org/dc/dcmitype/StillImage" />
        <dc:title>jv_header 1.2_1</dc:title>
      </cc:Work>
    </rdf:RDF>
  </metadata>
  <defs
     id="defs4">
    <style
       id="style2">.cls-1{fill:#fff;}.cls-2{opacity:0.96;isolation:isolate;}.cls-3{fill:#dc2229;}.cls-4{fill:#414042;}.cls-5{fill:#ffbc00;}</style>
  </defs>
  <title
     id="title6">jv_header 1.2_1</title>
  <g
     transform="translate(-73.557999)"
     data-name="Layer 2"
     id="Layer_2">
    <g
       data-name="Layer 1"
       id="Layer_1-2">
      <rect
         style="fill:#ffbc00;stroke-width:1;fill-opacity:1"
         y="0"
         x="73.557999"
         height="55.32"
         width="238.14401"
         class="cls-1"
         id="bg" />
      <g
         data-name="Layer 1-2"
         id="Layer_1-2-2">
        <rect
           style="opacity:0.95999995;isolation:isolate"
           id="rect9"
           height="30.559999"
           width="30.559999"
           y="12.38"
           x="90.410004"
           class="cls-2" />
        <polygon
           style="fill:#dc2229"
           id="polygon11"
           points="98.59,33.5 97.27,34.83 98.71,36.27 102.92,40.49 104.26,39.17 100.04,34.94 "
           class="cls-3" />
        <polygon
           style="fill:#414042"
           id="polygon13"
           points="109.19,25.79 109.19,27.23 109.19,28.69 109.19,29.88 109.79,29.28 110.51,28.56 111.23,27.84 111.23,20.84 111.23,13.86 109.19,15.9 109.19,20.84 "
           class="cls-4" />
        <polygon
           style="fill:#ffbc00"
           id="polygon15"
           points="110.51,28.56 109.79,29.28 109.19,29.88 109.07,30.02 108.35,30.74 107.75,31.34 104.26,34.83 105.7,36.27 109.19,32.78 110.51,31.46 111.23,30.74 111.23,29.28 111.23,27.84 "
           class="cls-5" />
        <polygon
           style="fill:#414042"
           id="polygon17"
           points="100.15,30.74 99.32,30.74 99.32,30.13 98.71,30.74 97.99,31.46 99.32,32.78 100.76,34.22 104.26,37.73 105.7,36.27 102.2,32.78 100.76,31.34 "
           class="cls-4" />
        <polyline
           style="fill:#414042"
           id="polyline19"
           points="104.26 41.82 111.23 34.83 111.18 32.24 102.92 40.49"
           class="cls-4" />
        <path
           style="fill:#414042"
           id="path21"
           d="M 121,12.38 V 42.94 H 90.41 V 12.38 H 121 m 2,-2 H 88.44 V 44.93 H 123 V 10.39 Z"
           class="cls-4" />
      </g>
      <path
         style="opacity:0.95999995;isolation:isolate"
         id="path24"
         d="M 151.4,8.54 V 35 c 0,7.47 -3.47,11.2 -10.32,11.2 a 20.62,20.62 0 0 1 -2.13,-0.08 v -5.7 a 4.59,4.59 0 0 0 1.06,0.09 c 2.67,0 4.09,-1.78 4.09,-5.33 V 8.53 Z"
         class="cls-2" />
      <path
         style="opacity:0.95999995;isolation:isolate"
         id="path28"
         d="m 190.33,19 v 4.36 a 13,13 0 0 0 -6.59,-2.14 c -1.51,0 -2.22,0.54 -2.22,1.51 a 1.24,1.24 0 0 0 0.45,0.81 22.17,22.17 0 0 0 3.55,1.6 10.92,10.92 0 0 1 4.48,2.86 5.53,5.53 0 0 1 1.33,3.56 5.73,5.73 0 0 1 -2,4.71 9.12,9.12 0 0 1 -6,1.69 16,16 0 0 1 -7,-1.42 v -4.35 a 15.55,15.55 0 0 0 6.32,1.69 c 2,0 3,-0.44 3,-1.42 a 1.56,1.56 0 0 0 -0.53,-1.07 18.4,18.4 0 0 0 -3.74,-1.78 9.57,9.57 0 0 1 -4.38,-2.75 5.14,5.14 0 0 1 -1.15,-3.29 5.08,5.08 0 0 1 2.22,-4.36 9.36,9.36 0 0 1 5.87,-1.69 13.63,13.63 0 0 1 6.39,1.48 z"
         class="cls-2" />
      <path
         style="opacity:0.95999995;isolation:isolate"
         id="path30"
         d="m 209.79,18 v 4.27 h -7.2 v 8.09 a 3.18,3.18 0 0 0 0.8,2.32 3,3 0 0 0 2.22,0.8 9.05,9.05 0 0 0 4.18,-1.16 v 4.45 a 15.32,15.32 0 0 1 -5.69,1.23 8,8 0 0 1 -5.61,-1.86 7.28,7.28 0 0 1 -2,-5.52 V 22.14 H 193.6 V 20.9 l 8.27,-9.25 h 0.8 v 6.22 l 7.12,0.09 z"
         class="cls-2" />
      <path
         style="opacity:0.95999995;isolation:isolate"
         id="path32"
         d="m 221.16,38.06 -9.07,-20 h 6.67 l 4.18,10.85 4.27,-10.85 h 6.58 l -9.07,20 z"
         class="cls-2" />
      <path
         style="opacity:0.95999995;isolation:isolate"
         id="path34"
         d="m 257.79,18 -13.16,29 h -6.58 L 243.83,34.38 236.09,18 h 6.58 L 246.85,28.14 251.3,18 Z"
         class="cls-2" />
      <path
         style="opacity:0.95999995;isolation:isolate"
         id="path36"
         d="M 266.31,8.54 V 19 a 9.65,9.65 0 0 1 5.07,-1.51 9.21,9.21 0 0 1 6.94,2.84 10.32,10.32 0 0 1 2.68,7.42 10.66,10.66 0 0 1 -2.58,7.38 8.27,8.27 0 0 1 -6.59,2.87 9.2,9.2 0 0 1 -5.52,-1.86 v 1.51 h -6.22 V 8.54 Z m 0,14.49 v 9.16 a 5.47,5.47 0 0 0 3.69,1.69 3.92,3.92 0 0 0 3.47,-1.69 7.8,7.8 0 0 0 1.24,-4.53 6.39,6.39 0 0 0 -1.33,-4.36 4.49,4.49 0 0 0 -3.47,-1.51 5.6,5.6 0 0 0 -3.6,1.21 z"
         class="cls-2" />
      <path
         style="opacity:0.95999995;isolation:isolate"
         id="path38"
         d="m 284.27,18 h 19.21 l -10.05,15.44 h 10.05 v 4.27 h -20.19 l 10.14,-15.48 h -9.16 z"
         class="cls-2" />
      <path
         style="opacity:0.95999995;isolation:isolate"
         id="path26"
         d="M 167.3,37.62 V 34.77 A 8,8 0 0 1 161,38 a 7.13,7.13 0 0 1 -5.26,-2 7.42,7.42 0 0 1 -2,-5.52 V 17.87 h 6.22 v 12.19 c 0,2.49 1.07,3.73 3.11,3.73 a 4.12,4.12 0 0 0 3,-1.33 4,4 0 0 0 1.24,-2.05 V 17.87 h 6.23 v 19.66 l -6.23,0.09 z"
         class="cls-2" />
    </g>
  </g>
</svg>
