<svg xmlns="http://www.w3.org/2000/svg" viewBox="0 0 77.54 77.54"><defs><style>.cls-1{opacity:0.96;isolation:isolate;}.cls-2{fill:#dc2229;}.cls-3{fill:#414042;}.cls-4{fill:#ffbc00;}</style></defs><title>Asset 1</title><g id="Layer_2" data-name="Layer 2"><g id="Layer_1-2" data-name="Layer 1"><g id="Layer_1-2-2" data-name="Layer 1-2"><rect class="cls-1" x="4.47" y="4.47" width="68.6" height="68.6"/><polygon class="cls-2" points="26.05 55.13 22.8 51.88 19.83 54.85 23.08 58.1 32.54 67.56 35.52 64.6 26.05 55.13"/><polygon class="cls-3" points="46.62 12.38 46.62 23.48 46.62 34.57 46.62 37.82 46.62 41.07 46.62 43.76 47.96 42.41 49.59 40.79 51.21 39.17 51.21 23.48 51.21 7.79 46.62 12.38"/><polygon class="cls-4" points="49.59 40.79 47.96 42.41 46.62 43.76 46.34 44.04 44.71 45.66 43.37 47.01 35.52 54.85 38.77 58.1 46.62 50.26 49.59 47.29 51.21 45.66 51.21 42.41 51.21 39.17 49.59 40.79"/><polygon class="cls-3" points="30.93 50.26 27.68 47.01 26.33 45.66 24.43 45.66 24.43 44.32 23.08 45.66 21.46 47.29 24.43 50.26 27.68 53.51 35.52 61.35 38.77 58.1 30.93 50.26"/><polyline class="cls-3" points="35.52 70.54 51.21 54.85 51.06 49.06 32.54 67.56"/><path class="cls-3" d="M73.07,4.47v68.6H4.47V4.47h68.6M77.54,0H0V77.54H77.54Z"/></g></g></g></svg>