<svg xmlns="http://www.w3.org/2000/svg" viewBox="0 0 200 200"><defs><style>.cls-1{fill:#fff;}.cls-2{fill:#010101;}.cls-3,.cls-4{fill:none;stroke-linecap:round;stroke-miterlimit:10;stroke-width:14.85px;}.cls-3{stroke:#010101;}.cls-4{stroke:#fff;}</style></defs><title>v2.2_2</title><g id="Layer_2" data-name="Layer 2"><g id="Layer_1-2" data-name="Layer 1"><g id="v2.2"><g id="path4651"><path class="cls-1" d="M100,192.58A92.58,92.58,0,0,1,48.24,23.23,92.59,92.59,0,0,1,151.76,176.77,92,92,0,0,1,100,192.58Z"/><path class="cls-2" d="M100,14.85a85.73,85.73,0,0,1,17.18,1.73,84.67,84.67,0,0,1,30.43,12.81,85.71,85.71,0,0,1,23,23,85,85,0,0,1,7.85,14.46,84,84,0,0,1,4.95,16,86.12,86.12,0,0,1,0,34.35,84.42,84.42,0,0,1-12.8,30.43,85.44,85.44,0,0,1-37.47,30.86,83.92,83.92,0,0,1-16,4.95,86.17,86.17,0,0,1-34.36,0,84.42,84.42,0,0,1-30.43-12.8,85.44,85.44,0,0,1-30.86-37.47,83.92,83.92,0,0,1-5-16,86.17,86.17,0,0,1,0-34.36,84.42,84.42,0,0,1,12.8-30.43A85.44,85.44,0,0,1,66.85,21.53a83.92,83.92,0,0,1,16-5A85.73,85.73,0,0,1,100,14.85M100,0A100,100,0,1,0,200,100,100,100,0,0,0,100,0Z"/></g><path class="cls-3" d="M145.66,154.35V85.87a184,184,0,0,0-22.83,18.82c-1.36,1.32-2.69,2.65-4,4-.91.94-1.82,1.9-2.71,2.86a182.33,182.33,0,0,0-16.11,20h0a183.31,183.31,0,0,0-16.1-20c-.9-1-1.81-1.92-2.72-2.86-1.32-1.36-2.65-2.7-4-4A183.07,183.07,0,0,0,54.34,85.88v68.47"/><path class="cls-4" d="M86.38,86.21A129,129,0,0,1,76.9,109a26.12,26.12,0,0,1-1.66,2.75"/><path class="cls-4" d="M113.91,87a128.76,128.76,0,0,0,9.48,22.79,27.18,27.18,0,0,0,1.66,2.75"/><path class="cls-3" d="M54.34,154.35h0a184.59,184.59,0,0,0,18-22.82q2.51-3.77,4.84-7.66l6.73-12.29v0c.47-.94.93-1.9,1.39-2.86a180,180,0,0,0,9-22.83,175.62,175.62,0,0,0,5.77-22.49h0a176.85,176.85,0,0,0,5.61,22.49,181.51,181.51,0,0,0,9,22.83c.45,1,.91,1.91,1.39,2.86q3.12,6.3,6.72,12.3,2.33,3.9,4.84,7.67a183.11,183.11,0,0,0,18,22.82h0"/></g></g></g></svg>