<svg xmlns="http://www.w3.org/2000/svg" viewBox="0 0 262.3 237.51"><defs><style>.cls-1,.cls-3{fill:#fff;}.cls-1{opacity:0;}.cls-2{fill:#010101;}.cls-4,.cls-5{fill:none;stroke-linecap:round;stroke-miterlimit:10;stroke-width:14.85px;}.cls-4{stroke:#010101;}.cls-5{stroke:#fff;}</style></defs><title>v2.3_2</title><g id="Layer_2" data-name="Layer 2"><g id="Layer_1-2" data-name="Layer 1"><g id="v2.2"><rect class="cls-1" width="262.3" height="237.51"/><g id="ada_maduka" data-name="ada maduka"><g id="maduka"><path class="cls-2" d="M126.39,235.64q0,.54-.51.54h-6.22c-.34,0-.51-.2-.51-.61,0-1.18,0-3,.13-5.33s.13-4.14.13-5.32c0-.34,0-.52-.16-.55a50.53,50.53,0,0,0-2.35,5.43L114.37,236a.78.78,0,0,1-.44.48c-.06,0-.3,0-.71,0-.61,0-1-.12-1.09-.36-.63-1.28-1.46-3.16-2.49-5.62s-1.93-4.48-2.48-5.64a.66.66,0,0,0-.16-.2.87.87,0,0,0-.12.51c0,1.15,0,2.87.08,5.17s.09,4,.09,5.17c0,.41-.16.61-.49.61h-5.87c-.23,0-.38,0-.43-.11a.77.77,0,0,1-.08-.4c0-1.27.06-3.19.18-5.75s.19-4.48.19-5.76-.06-3.91-.18-7.65c0-1-.06-2.42-.16-4.34v-.3c0-.23.23-.35.74-.35s1.61,0,2.9-.06,2.25-.06,2.9-.06c.13,0,.31.25.54.74l5.13,11.26c.37.77.67,1.15.92,1.15s.4-.44.82-1.32q1.78-3.69,5.26-11.13c.2-.45.42-.68.65-.68s.85,0,1.54.05,1.2.05,1.55.05.75,0,1.35-.09,1-.08,1.34-.08.53.14.53.42c0,1.38-.05,3.45-.15,6.19s-.15,4.82-.15,6.2.06,3.19.16,5.75S126.39,234.37,126.39,235.64Z"/><path class="cls-2" d="M152.84,235.74c0,.22-.14.36-.44.44a19.42,19.42,0,0,1-3.27.14,21.3,21.3,0,0,1-3.23-.14,1,1,0,0,1-.76-.79c-.39-1.68-.7-2.59-.93-2.7a35.78,35.78,0,0,0-4.71-.13,14.2,14.2,0,0,0-3.18.16,4.94,4.94,0,0,0-.67,1.88c-.22,1-.49,1.5-.81,1.58a28.29,28.29,0,0,1-4,.14c-1.8,0-2.69-.17-2.69-.51s1.32-4,4-11.23q4.31-11.65,4.68-12.81c.14-.45.3-.67.49-.67s.8,0,1.47.09,1.15.09,1.48.09.78,0,1.4-.07,1.07-.06,1.38-.06.43.2.61.58q.87,1.85,5,12.66T152.84,235.74Zm-12.46-16c-.25.52-.66,1.64-1.25,3.36a18.47,18.47,0,0,0-.95,3.22c0,.21.36.32,1.06.35.36,0,1,0,1.79,0s1.2-.09,1.28-.28a.57.57,0,0,0,0-.25,17.09,17.09,0,0,0-.81-3.19A24.81,24.81,0,0,0,140.38,219.73Z"/><path class="cls-2" d="M177.58,223.72a13.18,13.18,0,0,1-3.33,9,10.78,10.78,0,0,1-8.24,3.56c-.68,0-2.55,0-5.61,0-.57,0-1.44,0-2.59,0s-2-.06-2.59-.06c-.34,0-.51-.13-.51-.4,0-1.29,0-3.23.15-5.81s.15-4.52.15-5.81,0-3.37-.15-6.06-.15-4.7-.15-6c0-.25.17-.4.51-.44a39.35,39.35,0,0,1,4.09-.14q5.41,0,7,.16a13.49,13.49,0,0,1,6.52,2.1,10.87,10.87,0,0,1,3.5,4.43A13.21,13.21,0,0,1,177.58,223.72Zm-6.74,0a6.78,6.78,0,0,0-1.77-4.85,6.15,6.15,0,0,0-4.75-2q-2.7,0-2.7.72c0,.69,0,1.73,0,3.12s0,2.43,0,3.12,0,1.7,0,3.07,0,2.39,0,3.08c0,.51.93.76,2.81.76a6,6,0,0,0,4.78-2A7.51,7.51,0,0,0,170.84,223.72Z"/><path class="cls-2" d="M201.29,227.55q0,4.48-1.07,6.12-2,3-9.83,3a20.77,20.77,0,0,1-5.47-.55,5.48,5.48,0,0,1-4-3.35,14,14,0,0,1-.46-4.33c0-.48,0-1.19.06-2.14s0-1.66,0-2.13q0-2-.19-6.12t-.2-6.1c0-.28.13-.42.37-.42.72,0,1.8,0,3.25.09s2.52.09,3.24.09c.29,0,.44.13.44.38q0,2.32-.15,7t-.15,7a8.07,8.07,0,0,0,.58,3.73c.51.87,1.59,1.31,3.23,1.31q3.61,0,3.61-3.49,0-2.55-.13-7.65t-.12-7.65c0-.36.15-.54.44-.54.69,0,1.73,0,3.13-.09s2.44-.09,3.13-.09q.51,0,.51.42,0,2-.17,6.1t-.17,6.12c0,.38,0,.94,0,1.7S201.29,227.18,201.29,227.55Z"/><path class="cls-2" d="M226.39,235.2a.94.94,0,0,1-.65,1,12.12,12.12,0,0,1-2.78.18,19.78,19.78,0,0,1-3.16-.18,1.94,1.94,0,0,1-.63-.18,1.6,1.6,0,0,1-.37-.5q-1.29-2.35-2.55-4.71a35,35,0,0,0-2.5-4.19c-1.26.46-1.9.79-1.9,1,0,.88,0,2.2.11,4s.1,3.11.1,4c0,.36-.15.57-.47.61a24.48,24.48,0,0,1-3.3.14,19.41,19.41,0,0,1-3-.14q-.51-.1-.51-.54c0-1.27.06-3.18.19-5.73s.18-4.47.18-5.75-.06-3.4-.17-6.13-.18-4.76-.18-6.12c0-.26.12-.39.37-.39s.91,0,1.64,0,1.28.06,1.65.06.93,0,1.67-.06,1.28,0,1.65,0c.2,0,.3.11.3.32,0,.87-.05,2.18-.13,3.93s-.14,3.06-.14,3.93.28,1.51.83,1.51a4.4,4.4,0,0,0,3.25-1.15A8.88,8.88,0,0,0,217.6,217c.38-1.14,1-2.81,1.85-5a.78.78,0,0,1,.79-.44c.3,0,.76,0,1.38,0s1.07.06,1.38.06.79,0,1.41,0l1.4,0c.28,0,.42.13.42.4a12.77,12.77,0,0,1-.74,2.83q-2.18,6.65-5,8.3c-.38.22-.58.4-.58.54s1.09,1.75,3.25,5.28S226.39,234.53,226.39,235.2Z"/><path class="cls-2" d="M251.6,235.74c0,.22-.15.36-.44.44a19.42,19.42,0,0,1-3.27.14,21.38,21.38,0,0,1-3.24-.14.94.94,0,0,1-.75-.79c-.4-1.68-.71-2.59-.93-2.7a36,36,0,0,0-4.71-.13,14.26,14.26,0,0,0-3.19.16,5,5,0,0,0-.66,1.88c-.23,1-.5,1.5-.81,1.58a28.58,28.58,0,0,1-4,.14c-1.79,0-2.69-.17-2.69-.51s1.32-4,4-11.23q4.31-11.65,4.68-12.81c.14-.45.3-.67.49-.67s.81,0,1.47.09,1.16.09,1.48.09.79,0,1.4-.07,1.08-.06,1.38-.06.43.2.62.58q.86,1.85,5,12.66T251.6,235.74Zm-12.47-16c-.24.52-.66,1.64-1.24,3.36a17.52,17.52,0,0,0-.95,3.22c0,.21.35.32,1.05.35.37,0,1,0,1.8,0s1.2-.09,1.28-.28a.81.81,0,0,0,0-.25,17.57,17.57,0,0,0-.8-3.19A24.31,24.31,0,0,0,239.13,219.73Z"/></g><g id="ada"><path class="cls-2" d="M34.64,236.51c0,.21-.14.36-.44.44a20.68,20.68,0,0,1-3.27.14A22.8,22.8,0,0,1,27.7,237a1,1,0,0,1-.76-.79c-.39-1.69-.71-2.59-.93-2.71a39.8,39.8,0,0,0-4.71-.12,13.51,13.51,0,0,0-3.18.16,4.79,4.79,0,0,0-.67,1.88c-.22,1-.49,1.5-.81,1.58a30.3,30.3,0,0,1-4,.14c-1.79,0-2.68-.17-2.68-.51s1.32-4.05,4-11.23q4.3-11.65,4.67-12.82c.14-.44.31-.67.5-.67s.8,0,1.46.09,1.16.09,1.49.09.78,0,1.4-.06,1.07-.06,1.38-.06.42.19.61.58q.87,1.84,5,12.65T34.64,236.51Zm-12.46-16c-.25.51-.66,1.63-1.25,3.35a18.47,18.47,0,0,0-.95,3.22c0,.21.35.33,1.06.35.36,0,1,0,1.79,0s1.2-.1,1.28-.28a.6.6,0,0,0,0-.25,17.1,17.1,0,0,0-.81-3.2A23.9,23.9,0,0,0,22.18,220.5Z"/><path class="cls-2" d="M59.38,224.49a13.15,13.15,0,0,1-3.33,9A10.82,10.82,0,0,1,47.81,237q-1,0-5.61,0c-.57,0-1.44,0-2.59-.05s-2-.05-2.59-.05c-.34,0-.51-.14-.51-.41,0-1.28.05-3.22.15-5.81s.14-4.52.14-5.8,0-3.37-.14-6.06-.15-4.7-.15-6c0-.24.17-.39.51-.44.83-.09,2.19-.14,4.09-.14q5.41,0,7,.16a13.39,13.39,0,0,1,6.52,2.11A10.64,10.64,0,0,1,58.14,219,13.19,13.19,0,0,1,59.38,224.49Zm-6.74,0a6.83,6.83,0,0,0-1.77-4.86,6.15,6.15,0,0,0-4.75-1.95c-1.8,0-2.71.24-2.71.72q0,1,0,3.12c0,1.39,0,2.43,0,3.12s0,1.71,0,3.07,0,2.39,0,3.09q0,.75,2.82.75a6,6,0,0,0,4.78-2A7.5,7.5,0,0,0,52.64,224.49Z"/><path class="cls-2" d="M85.29,236.51c0,.21-.15.36-.44.44a20.87,20.87,0,0,1-3.27.14,22.88,22.88,0,0,1-3.24-.14.94.94,0,0,1-.75-.79c-.4-1.69-.71-2.59-.94-2.71a39.53,39.53,0,0,0-4.71-.12,13.51,13.51,0,0,0-3.18.16,4.79,4.79,0,0,0-.67,1.88c-.22,1-.49,1.5-.8,1.58a30.41,30.41,0,0,1-4,.14c-1.8,0-2.69-.17-2.69-.51s1.32-4.05,4-11.23q4.31-11.65,4.68-12.82c.14-.44.3-.67.49-.67s.8,0,1.47.09,1.15.09,1.48.09.78,0,1.4-.06,1.07-.06,1.38-.06.43.19.61.58q.87,1.84,5,12.65T85.29,236.51Zm-12.47-16c-.24.51-.66,1.63-1.25,3.35a18,18,0,0,0-.94,3.22c0,.21.35.33,1.05.35.36,0,1,0,1.79,0s1.2-.1,1.29-.28a.85.85,0,0,0,0-.25,17.1,17.1,0,0,0-.81-3.2A22.52,22.52,0,0,0,72.82,220.5Z"/></g></g><g id="bg"><path class="cls-3" d="M131.15,192.9a92,92,0,0,1-36-7.27,92.9,92.9,0,0,1-40.73-33.54,92.41,92.41,0,0,1,0-103.53A92.81,92.81,0,0,1,95.11,15a93,93,0,0,1,72.08,0,93,93,0,0,1,29.43,19.85,94.51,94.51,0,0,1,11.31,13.71,92.5,92.5,0,0,1,0,103.51,93.9,93.9,0,0,1-11.31,13.7,92.27,92.27,0,0,1-65.47,27.11Z"/><path class="cls-2" d="M131.15,15.17a85.18,85.18,0,0,1,70.62,37.57,84.72,84.72,0,0,1,12.81,30.42,86.12,86.12,0,0,1,0,34.35,85,85,0,0,1-23.21,43,85,85,0,0,1-27.07,18.25,84.8,84.8,0,0,1-16,5,86.22,86.22,0,0,1-34.37,0A84.89,84.89,0,0,1,83.54,171a85.71,85.71,0,0,1-23-23,84.47,84.47,0,0,1-12.8-30.42,86.22,86.22,0,0,1,0-34.37,84.27,84.27,0,0,1,12.8-30.42A85.39,85.39,0,0,1,98,21.85a84.87,84.87,0,0,1,16-5,85.73,85.73,0,0,1,17.18-1.73m0-14.85a100,100,0,1,0,100,100,100,100,0,0,0-100-100Z"/></g><g id="m"><path class="cls-4" d="M176.81,154.68V86.2A183.88,183.88,0,0,0,154,105c-1.36,1.32-2.69,2.66-4,4-.91,1-1.82,1.9-2.71,2.86a184.24,184.24,0,0,0-16.11,20h0a184,184,0,0,0-16.1-20c-.9-1-1.8-1.92-2.72-2.86-1.32-1.36-2.65-2.69-4-4A184.11,184.11,0,0,0,85.49,86.2v68.48"/></g><g id="a"><path class="cls-5" d="M117.53,86.53a128.66,128.66,0,0,1-9.48,22.78,26.19,26.19,0,0,1-1.66,2.76"/><path class="cls-5" d="M145.07,87.35a128.2,128.2,0,0,0,9.47,22.78,26.12,26.12,0,0,0,1.66,2.75"/><path class="cls-4" d="M85.49,154.67h0a182.18,182.18,0,0,0,18-22.82q2.51-3.76,4.84-7.66l6.73-12.29h0c.47-.95.93-1.91,1.39-2.86a182.72,182.72,0,0,0,9-22.83,177.42,177.42,0,0,0,5.76-22.5h0a175.36,175.36,0,0,0,5.62,22.5,181.14,181.14,0,0,0,9,22.83c.46,1,.92,1.91,1.39,2.86q3.12,6.28,6.72,12.3,2.33,3.9,4.85,7.67a184.51,184.51,0,0,0,18,22.82h0"/></g></g></g></g></svg>