<svg xmlns="http://www.w3.org/2000/svg" viewBox="0 0 1254.51 147.43"><defs><style>.cls-1{fill:#010101;}</style></defs><title>v3 name</title><g id="Layer_2" data-name="Layer 2"><g id="Layer_1-2" data-name="Layer 1"><g id="Layer_1-2-2" data-name="Layer 1-2"><g id="v2.2"><g id="adamaduka"><path class="cls-1" d="M569.08,141.2c0,2-1,3.05-2.88,3.05H531c-1.92,0-2.88-1.13-2.88-3.45,0-6.68,0-17,.73-30.16s.74-23.43.74-30.1c0-1.93,0-2.94-.91-3.11a283.81,283.81,0,0,0-13.29,30.72l-14.32,35.08a4.42,4.42,0,0,1-2.49,2.72h-4c-3.45,0-5.66-.68-6.17-2-3.56-7.24-8.26-17.88-14.09-31.8s-10.92-25.35-14-31.91a3.66,3.66,0,0,0-.9-1.13,4.85,4.85,0,0,0-.68,2.88c0,6.51,0,16.24.45,29.26s.51,22.63.51,29.25c0,2.32-.91,3.45-2.77,3.45H423.66c-1.3,0-2.15,0-2.43-.62a4.42,4.42,0,0,1-.46-2.26q0-10.78,1-32.54c.68-14.48,1.08-25.35,1.08-32.59s-.34-22.13-1-43.29c0-5.66-.34-13.69-.91-24.56V6.35c0-1.3,1.31-2,4.19-2s9.11,0,16.41-.34S454.27,3.7,458,3.7c.74,0,1.76,1.41,3.06,4.18L490,71.6c2.09,4.35,3.79,6.5,5.2,6.5s2.26-2.49,4.64-7.46q10.08-20.88,29.76-63c1.14-2.55,2.38-3.85,3.68-3.85s4.81,0,8.72.28,6.79.28,8.77.28a46.3,46.3,0,0,0,7.64-.51A45.71,45.71,0,0,1,566,3.41c1.92,0,3,.79,3,2.38,0,7.81-.28,19.52-.85,35s-.85,27.28-.85,35.09.34,18,.91,32.53S569.08,134,569.08,141.2Z"/><path class="cls-1" d="M716.87,139.43c0,1.24-.79,2-2.48,2.49a110.13,110.13,0,0,1-18.51.79,121.41,121.41,0,0,1-18.28-.79,5.69,5.69,0,0,1-4.3-4.47c-2.2-9.51-4-14.66-5.26-15.28a202.65,202.65,0,0,0-26.65-.74,80.26,80.26,0,0,0-18,.91A27.91,27.91,0,0,0,619.6,133c-1.24,5.65-2.77,8.48-4.58,8.94a161.38,161.38,0,0,1-22.63.79c-10.19,0-15.22-1-15.22-2.89s7.47-22.63,22.63-63.54q24.39-65.93,26.48-72.49C627.07,1.24,628,0,629.05,0a63.46,63.46,0,0,1,8.32.51,58.14,58.14,0,0,0,8.38.51,64.69,64.69,0,0,0,7.92-.4,63.17,63.17,0,0,1,7.81-.34c1.75,0,2.43,1.13,3.45,3.28Q669.85,14,693.22,75.2T716.87,139.43Zm-70.5-90.54c-1.42,2.94-3.74,9.28-7.07,19a105.23,105.23,0,0,0-5.38,18.22c0,1.19,2,1.81,6,2h10.13c4.47,0,6.79-.51,7.24-1.58a3.1,3.1,0,0,0,0-1.42,96.9,96.9,0,0,0-4.58-18,141.26,141.26,0,0,0-6.34-18.22Z"/><path class="cls-1" d="M854.52,70.48a74.6,74.6,0,0,1-18.84,50.92,61,61,0,0,1-46.63,20.15h-46.4c-6.51,0-11.32-.34-14.66-.34-1.92,0-2.88-.74-2.88-2.27,0-7.29,0-18.27.85-32.87s.85-25.58.85-32.88,0-19.07-.85-34.29-.85-26.59-.85-33.95c0-1.41,1-2.26,2.88-2.49a223.56,223.56,0,0,1,23.15-.79q30.61,0,39.61.9a76.33,76.33,0,0,1,36.89,11.89,61.54,61.54,0,0,1,19.81,25.06A75,75,0,0,1,854.52,70.48Zm-38.14,0a38.38,38.38,0,0,0-10-27.45,34.78,34.78,0,0,0-26.87-11.31q-15.29,0-15.28,4.07V105.9c0,2.88,5.26,4.3,15.9,4.3a34,34,0,0,0,27-11.32A42.5,42.5,0,0,0,816.38,70.48Z"/><path class="cls-1" d="M979.92,93.48q0,25.35-6,34.63-11.32,17-55.62,17a117.31,117.31,0,0,1-31-3.11,31,31,0,0,1-22.63-19,79.05,79.05,0,0,1-2.6-24.5c0-2.71,0-6.73.34-12.11s0-9.39,0-12.05q0-11.31-1.08-34.63T860.19,5.2c0-1.58.74-2.37,2.09-2.37,4.08,0,10.19,0,18.39.51s14.26.51,18.34.51c1.64,0,2.49.73,2.49,2.15q0,13.13-.85,39.61t-.85,39.61a45.62,45.62,0,0,0,3.28,21.1c2.89,4.92,9,7.41,18.28,7.41q20.43,0,20.43-19.74,0-14.43-.74-43.29t-.68-43.29c0-2,.85-3,2.49-3,3.91,0,9.79,0,17.71-.51s13.81-.51,17.71-.51c1.93,0,2.89.79,2.89,2.37q0,11.33-1,34.52t-1,34.63v9.62C979.25,88.78,979.92,91.38,979.92,93.48Z"/><path class="cls-1" d="M1109.11,135.88a5.33,5.33,0,0,1-3.68,5.66,68.52,68.52,0,0,1-15.73,1,112.49,112.49,0,0,1-17.88-1,11.15,11.15,0,0,1-3.57-1,9.25,9.25,0,0,1-2.09-2.83q-7.31-13.31-14.43-26.65a196.25,196.25,0,0,0-14.15-23.71c-7.13,2.6-10.75,4.47-10.75,5.66,0,5,0,12.44.63,22.63s.56,17.6.56,22.63c0,2-.85,3.23-2.66,3.46a140.31,140.31,0,0,1-18.67.79,110.75,110.75,0,0,1-17-.79q-2.88-.57-2.88-3.06,0-10.78,1.07-32.42c.74-14.43,1-25.3,1-32.54s-.34-19.24-1-34.69-1-26.93-1-34.63c0-1.47.68-2.2,2.09-2.2h9.28c4.14,0,7.25.34,9.34.34s5.26,0,9.45-.34a83.18,83.18,0,0,1,9.34,0c1.13,0,1.69.62,1.69,1.81,0,4.92-.28,12.33-.73,22.23s-.79,17.32-.79,22.24,1.58,8.55,4.69,8.55a24.91,24.91,0,0,0,18.39-6.51,50.26,50.26,0,0,0,9.68-17.6q3.23-9.67,10.47-28.29a4.4,4.4,0,0,1,4.47-2.49h7.81c3.51,0,6.05.34,7.81.34h15.9c1.58,0,2.37.73,2.37,2.26a72.13,72.13,0,0,1-4.18,16q-12.35,37.62-28.3,47c-2.15,1.25-3.28,2.27-3.28,3.06s6.17,9.9,18.39,29.87S1109.11,132.09,1109.11,135.88Z"/><path class="cls-1" d="M1254.51,139.81c0,1.25-.85,2-2.49,2.49a110.06,110.06,0,0,1-18.5.79,120.79,120.79,0,0,1-18.34-.79,5.31,5.31,0,0,1-4.24-4.47c-2.27-9.51-4-14.66-5.26-15.28a204.54,204.54,0,0,0-26.66-.73,80.82,80.82,0,0,0-18,.9,28.43,28.43,0,0,0-3.73,10.64c-1.3,5.66-2.83,8.49-4.58,8.94a161.47,161.47,0,0,1-22.64.79c-10.13,0-15.22-1-15.22-2.88s7.47-22.64,22.63-63.55q24.39-65.92,26.49-72.48c.79-2.55,1.69-3.8,2.77-3.8a63.13,63.13,0,0,1,8.32.51,58,58,0,0,0,8.37.51A66.25,66.25,0,0,0,1191.3,1a61.22,61.22,0,0,1,7.81-.34c1.7,0,2.44,1.13,3.51,3.28q4.86,10.47,28.29,71.64T1254.51,139.81ZM1184,49.27c-1.36,2.95-3.74,9.28-7,19a99.52,99.52,0,0,0-5.38,18.22c0,1.19,2,1.81,6,2h10.18c4.53,0,6.79-.51,7.24-1.59a4.17,4.17,0,0,0,0-1.41,99.15,99.15,0,0,0-4.52-18A137.81,137.81,0,0,0,1184,49.22Z"/><path class="cls-1" d="M139.65,143.78c0,1.19-.79,2-2.49,2.49a115.49,115.49,0,0,1-18.5.79,128.22,128.22,0,0,1-18.28-.5,5.69,5.69,0,0,1-4.3-4.47c-2.21-9.57-4-14.66-5.26-15.34a225.72,225.72,0,0,0-26.65-.68,76.4,76.4,0,0,0-18,.91,27.29,27.29,0,0,0-3.79,10.64c-1.24,5.65-2.77,8.48-4.58,8.94a172.84,172.84,0,0,1-22.64.79C5,147.35,0,146.39,0,144.46s7.47-22.91,22.63-63.54Q47,15,49.06,8.37c.79-2.49,1.75-3.79,2.83-3.79a62.3,62.3,0,0,1,8.26.51,58.32,58.32,0,0,0,8.43.51,75.82,75.82,0,0,0,7.92-.34,75.23,75.23,0,0,1,7.81-.34c1.76,0,2.38,1.08,3.45,3.28q4.93,10.43,28.3,71.59T139.65,143.78ZM69.15,53.25c-1.42,2.88-3.74,9.22-7.08,19A104.33,104.33,0,0,0,56.7,90.42c0,1.19,2,1.87,6,2H72.83c4.47,0,6.79-.56,7.24-1.58a3.4,3.4,0,0,0,0-1.42,96.65,96.65,0,0,0-4.59-18.1,134.86,134.86,0,0,0-6.33-18.11Z"/><path class="cls-1" d="M274.72,73.29a74.39,74.39,0,0,1-18.84,50.92,61.2,61.2,0,0,1-46.63,19.86H177.51c-3.23,0-8.15,0-14.66-.28s-11.31-.28-14.65-.28c-1.93,0-2.89-.79-2.89-2.32q0-10.87.85-32.88c.57-14.65.79-25.58.79-32.82s0-19.07-.79-34.29-.85-26.59-.85-33.95c0-1.36,1-2.21,2.89-2.49,4.69-.51,12.39-.79,23.14-.79Q202,4,211,4.87a75.84,75.84,0,0,1,36.89,11.94A60.15,60.15,0,0,1,267.7,42.22,74.66,74.66,0,0,1,274.72,73.29Zm-38.14,0a38.66,38.66,0,0,0-10-27.51,34.79,34.79,0,0,0-26.88-11c-10.19,0-15.34,1.36-15.34,4.07V109q0,4.24,16,4.24a33.94,33.94,0,0,0,27.05-11.31A42.39,42.39,0,0,0,236.58,73.29Z"/><path class="cls-1" d="M410.15,142.4c0,1.18-.85,2-2.49,2.49a119.08,119.08,0,0,1-18.5.79,130.49,130.49,0,0,1-18.33-.79,5.32,5.32,0,0,1-4.25-4.47c-2.26-9.57-4-14.66-5.32-15.34a225.72,225.72,0,0,0-26.65-.68,76.34,76.34,0,0,0-18,.91A27,27,0,0,0,312.83,136c-1.25,5.65-2.78,8.48-4.53,8.94a172.75,172.75,0,0,1-22.63.79c-10.19,0-15.23-1-15.23-2.89s7.47-22.91,22.64-63.54q24.39-65.93,26.48-72.54c.79-2.49,1.7-3.8,2.77-3.8a63.46,63.46,0,0,1,8.32.51,58.09,58.09,0,0,0,8.37.51A76.09,76.09,0,0,0,347,3.59a75.13,75.13,0,0,1,7.81-.34c1.75,0,2.43,1.08,3.45,3.29Q363.13,17,386.5,78.12T410.15,142.4ZM339.59,51.86q-2,4.34-7.07,19A101.17,101.17,0,0,0,327.2,89c0,1.18,2,1.86,5.94,2h10.13c4.47,0,6.79-.57,7.3-1.59a4.76,4.76,0,0,0,0-1.41A96.55,96.55,0,0,0,346,69.91a127.62,127.62,0,0,0-6.39-18.11Z"/></g></g></g></g></g></svg>