<?xml version="1.0" encoding="UTF-8" standalone="no"?>
<svg
   xmlns:dc="http://purl.org/dc/elements/1.1/"
   xmlns:cc="http://creativecommons.org/ns#"
   xmlns:rdf="http://www.w3.org/1999/02/22-rdf-syntax-ns#"
   xmlns:svg="http://www.w3.org/2000/svg"
   xmlns="http://www.w3.org/2000/svg"
   xmlns:sodipodi="http://sodipodi.sourceforge.net/DTD/sodipodi-0.dtd"
   xmlns:inkscape="http://www.inkscape.org/namespaces/inkscape"
   viewBox="0 0 1556.87 237.51"
   version="1.1"
   id="svg49"
   sodipodi:docname="v3.1.svg"
   inkscape:version="0.92.5 (2060ec1f9f, 2020-04-08)">
  <metadata
     id="metadata53">
    <rdf:RDF>
      <cc:Work
         rdf:about="">
        <dc:format>image/svg+xml</dc:format>
        <dc:type
           rdf:resource="http://purl.org/dc/dcmitype/StillImage" />
      </cc:Work>
    </rdf:RDF>
  </metadata>
  <sodipodi:namedview
     pagecolor="#ffffff"
     bordercolor="#666666"
     borderopacity="1"
     objecttolerance="10"
     gridtolerance="10"
     guidetolerance="10"
     inkscape:pageopacity="0"
     inkscape:pageshadow="2"
     inkscape:window-width="1920"
     inkscape:window-height="1043"
     id="namedview51"
     showgrid="false"
     inkscape:zoom="0.53825946"
     inkscape:cx="652.41499"
     inkscape:cy="167.59239"
     inkscape:window-x="0"
     inkscape:window-y="0"
     inkscape:window-maximized="1"
     inkscape:current-layer="v2.2" />
  <defs
     id="defs4">
    <style
       id="style2">.cls-1,.cls-3{fill:#fff;}.cls-1{fill-opacity:0;}.cls-2{fill:#010101;}.cls-4,.cls-5{fill:none;stroke-linecap:round;stroke-miterlimit:10;stroke-width:14.85px;}.cls-4{stroke:#010101;}.cls-5{stroke:#fff;}</style>
  </defs>
  <title
     id="title6">v3.1</title>
  <g
     id="Layer_2"
     data-name="Layer 2">
    <g
       id="Layer_1-2"
       data-name="Layer 1">
      <g
         id="Layer_1-2-2"
         data-name="Layer 1-2">
        <g
           id="v2.2">
          <rect
             class="cls-1"
             width="1556.87"
             height="237.50999"
             id="rect8"
             x="0"
             y="0"
             style="fill:#ffffff;fill-opacity:0" />
          <g
             id="adamaduka">
            <g
               id="g64">
              <path
                 style="fill:#010101"
                 inkscape:connector-curvature="0"
                 id="path10"
                 d="m 837.94568,189.09648 c 0,2 -1,3.06 -2.89,3.06 h -35.19 c -1.93,0 -2.89,-1.14 -2.89,-3.46 0,-6.67 0,-17 0.74,-30.16 0.74,-13.16 0.73,-23.42 0.73,-30.1 0,-1.92 0,-2.94 -0.9,-3.11 a 285.86,285.86 0 0 0 -13.3,30.72 l -14.31,35.09 a 4.45,4.45 0 0 1 -2.49,2.71 h -4 c -3.45,0 -5.66,-0.68 -6.17,-2 -3.56,-7.25 -8.26,-17.88 -14.09,-31.8 -5.83,-13.92 -10.92,-25.35 -14,-31.92 a 3.84,3.84 0 0 0 -0.91,-1.13 5,5 0 0 0 -0.68,2.89 c 0,6.5 0,16.24 0.46,29.25 0.46,13.01 0.5,22.63 0.5,29.25 0,2.32 -0.9,3.46 -2.77,3.46 h -33.26 c -1.3,0 -2.15,0 -2.44,-0.63 a 4.42,4.42 0 0 1 -0.45,-2.26 q 0,-10.78 1,-32.54 c 0.68,-14.48 1.07,-25.35 1.07,-32.59 0,-7.24 -0.34,-22.12 -1,-43.29 0,-5.66 -0.34,-13.69 -0.91,-24.55 v -1.7 c 0,-1.3 1.3,-2 4.19,-2 2.89,0 9.11,0 16.41,-0.34 7.3,-0.34 12.73,-0.34 16.41,-0.34 0.73,0 1.75,1.41 3,4.19 l 29,63.71 c 2.09,4.36 3.79,6.51 5.21,6.51 1.42,0 2.26,-2.49 4.64,-7.47 q 10.07,-20.88 29.76,-63 c 1.13,-2.55 2.38,-3.85 3.68,-3.85 1.3,0 4.81,0 8.71,0.28 3.9,0.28 6.79,0.29 8.77,0.29 a 46.24,46.24 0 0 0 7.64,-0.51 44.74,44.74 0 0 1 7.59,-0.45 c 1.92,0 3,0.79 3,2.37 0,7.81 -0.28,19.52 -0.84,35 -0.56,15.48 -0.85,27.27 -0.85,35.08 0,7.81 0.34,18 0.9,32.54 0.56,14.54 0.93,25.61 0.93,32.8 z"
                 class="cls-2" />
              <path
                 style="fill:#010101"
                 inkscape:connector-curvature="0"
                 id="path12"
                 d="m 985.71568,187.32648 c 0,1.24 -0.79,2 -2.49,2.49 a 110,110 0 0 1 -18.5,0.79 120,120 0 0 1 -18.28,-0.79 5.67,5.67 0 0 1 -4.3,-4.47 c -2.21,-9.51 -4,-14.66 -5.26,-15.28 a 200.94,200.94 0 0 0 -26.65,-0.73 80.35,80.35 0 0 0 -18,0.9 28.06,28.06 0 0 0 -3.79,10.64 c -1.24,5.66 -2.77,8.49 -4.58,8.94 a 160,160 0 0 1 -22.64,0.79 c -10.18,0 -15.22,-1 -15.22,-2.88 0,-1.88 7.47,-22.64 22.64,-63.55 q 24.38,-65.93 26.48,-72.49 c 0.79,-2.54 1.7,-3.79 2.77,-3.79 a 63.46,63.46 0 0 1 8.32,0.51 58.09,58.09 0 0 0 8.37,0.51 66.4,66.4 0 0 0 7.93,-0.39 61.08,61.08 0 0 1 7.8,-0.34 c 1.76,0 2.44,1.13 3.46,3.28 q 4.92,10.47 28.29,71.64 23.37,61.17 23.65,64.22 z m -70.5,-90.54 c -1.42,3 -3.74,9.28 -7.08,19 a 103.82,103.82 0 0 0 -5.37,18.22 c 0,1.18 2,1.81 6,2 h 10.13 c 4.47,0 6.79,-0.51 7.25,-1.59 a 3.35,3.35 0 0 0 0,-1.41 96.73,96.73 0 0 0 -4.59,-18.05 141.22,141.22 0 0 0 -6.33,-18.22 z"
                 class="cls-2" />
              <path
                 style="fill:#010101"
                 inkscape:connector-curvature="0"
                 id="path14"
                 d="m 1123.3757,118.42648 a 74.54,74.54 0 0 1 -18.84,50.93 61,61 0 0 1 -46.62,20.07 h -46.4 c -6.51,0 -11.32,-0.34 -14.66002,-0.34 -1.92,0 -2.89,-0.73 -2.89,-2.26 0,-7.3 0,-18.28 0.85,-32.88 0.85,-14.6 0.9,-25.52 0.9,-32.85 0,-7.33 0,-19.07 -0.85,-34.29 -0.85,-15.22 -0.85,-26.6 -0.85,-34 0,-1.41 1,-2.26 2.89,-2.49 a 223.46,223.46 0 0 1 23.14002,-0.79 q 30.62,0 39.61,0.91 a 76.32,76.32 0 0 1 36.9,11.88 61.54,61.54 0 0 1 19.75,25.11 74.6,74.6 0 0 1 7.07,31 z m -38.13,0 a 38.36,38.36 0 0 0 -10,-27.44 34.76,34.76 0 0 0 -26.88,-11.32 q -15.27,0 -15.28,4.07 v 70.11 c 0,2.89 5.27,4.3 15.91,4.3 a 33.93,33.93 0 0 0 27,-11.31 42.55,42.55 0 0 0 9.25,-28.41 z"
                 class="cls-2" />
              <path
                 style="fill:#010101"
                 inkscape:connector-curvature="0"
                 id="path16"
                 d="m 1248.7857,141.42648 q 0,25.35 -6,34.63 -11.32,17 -55.63,17 a 117.62,117.62 0 0 1 -31,-3.12 31,31 0 0 1 -22.63,-18.95 79.39,79.39 0 0 1 -2.61,-24.5 c 0,-2.72 0,-6.74 0.34,-12.11 0.34,-5.37 0,-9.4 0,-12.06 q 0,-11.31 -1.07,-34.63 -1.07,-23.32 -1.13,-34.51 c 0,-1.59 0.73,-2.38 2.09,-2.38 4.07,0 10.18,0 18.39,0.51 8.21,0.51 14.26,0.51 18.33,0.51 1.64,0 2.49,0.73 2.49,2.15 q 0,13.13 -0.85,39.61 -0.85,26.48 -0.84,39.61 a 45.66,45.66 0 0 0 3.28,21.11 c 2.88,4.92 9,7.41 18.27,7.41 q 20.43,0 20.43,-19.75 0,-14.43 -0.73,-43.29 -0.73,-28.86 -0.68,-43.29 c 0,-2 0.85,-3.05 2.49,-3.05 3.9,0 9.79,0 17.71,-0.51 7.92,-0.51 13.8,-0.51 17.71,-0.51 1.92,0 2.89,0.79 2.89,2.38 q 0,11.31 -1,34.51 -1,23.2 -1,34.63 v 9.6 c 0.07,4.25 0.75,6.86 0.75,9 z"
                 class="cls-2" />
              <path
                 style="fill:#010101"
                 inkscape:connector-curvature="0"
                 id="path18"
                 d="m 1377.9657,183.77648 a 5.31,5.31 0 0 1 -3.67,5.66 69.13,69.13 0 0 1 -15.73,1 111.52,111.52 0 0 1 -17.89,-1 11.1,11.1 0 0 1 -3.56,-1 8.94,8.94 0 0 1 -2.09,-2.83 q -7.3,-13.29 -14.43,-26.65 a 198.34,198.34 0 0 0 -14.15,-23.71 c -7.13,2.6 -10.75,4.47 -10.75,5.66 0,5 0,12.45 0.62,22.63 0.62,10.18 0.57,17.6 0.57,22.64 0,2 -0.85,3.22 -2.66,3.45 a 138.64,138.64 0 0 1 -18.67,0.79 109.44,109.44 0 0 1 -17,-0.79 c -1.92,-0.38 -2.89,-1.4 -2.89,-3.06 0,-7.18 0.34,-18 1.08,-32.42 0.74,-14.42 1,-25.29 1,-32.54 0,-7.25 -0.34,-19.24 -1,-34.68 -0.66,-15.44 -1,-26.94 -1,-34.63 0,-1.47 0.68,-2.21 2.09,-2.21 h 9.28 c 4.13,0 7.24,0.34 9.34,0.34 2.1,0 5.26,0 9.45,-0.34 a 83,83 0 0 1 9.33,0 c 1.13,0 1.7,0.62 1.7,1.81 0,4.92 -0.28,12.34 -0.73,22.24 -0.45,9.9 -0.8,17.31 -0.8,22.24 0,4.93 1.59,8.54 4.7,8.54 a 24.91,24.91 0 0 0 18.39,-6.51 50.22,50.22 0 0 0 9.68,-17.59 q 3.23,-9.69 10.46,-28.3 a 4.44,4.44 0 0 1 4.47,-2.49 h 7.81 c 3.51,0 6.06,0.34 7.81,0.34 h 15.99 c 1.59,0 2.38,0.74 2.38,2.27 a 72.07,72.07 0 0 1 -4.19,16 q -12.33,37.64 -28.29,47 c -2.15,1.24 -3.28,2.26 -3.28,3 0,0.74 6.16,9.9 18.39,29.88 12.23,19.98 18.24,31.47 18.24,35.26 z"
                 class="cls-2" />
              <path
                 style="fill:#010101"
                 inkscape:connector-curvature="0"
                 id="path20"
                 d="m 1523.3657,187.70648 c 0,1.25 -0.84,2 -2.48,2.49 a 110.13,110.13 0 0 1 -18.51,0.8 120.72,120.72 0 0 1 -18.33,-0.8 5.31,5.31 0 0 1 -4.25,-4.47 c -2.26,-9.5 -4,-14.65 -5.26,-15.27 a 202.65,202.65 0 0 0 -26.65,-0.74 80.21,80.21 0 0 0 -18.05,0.91 28.16,28.16 0 0 0 -3.74,10.63 c -1.3,5.66 -2.82,8.49 -4.58,8.94 a 161.38,161.38 0 0 1 -22.63,0.8 c -10.13,0 -15.22,-1 -15.22,-2.89 0,-1.89 7.47,-22.63 22.63,-63.55 q 24.39,-65.91 26.48,-72.48 c 0.79,-2.55 1.7,-3.79 2.77,-3.79 a 63,63 0 0 1 8.32,0.51 58.21,58.21 0 0 0 8.38,0.51 64.61,64.61 0 0 0 7.92,-0.4 61.22,61.22 0 0 1 7.81,-0.34 c 1.7,0 2.43,1.13 3.51,3.28 q 4.86,10.47 28.29,71.64 23.43,61.17 23.59,64.22 z m -70.56,-90.53 c -1.35,2.94 -3.73,9.28 -7,19 a 99.75,99.75 0 0 0 -5.39,18.25 c 0,1.19 2,1.81 5.94,2 h 10.19 c 4.52,0 6.79,-0.51 7.24,-1.58 a 4.83,4.83 0 0 0 0,-1.42 99.38,99.38 0 0 0 -4.53,-18.05 136.89,136.89 0 0 0 -6.45,-18.22 z"
                 class="cls-2" />
              <path
                 style="fill:#010101"
                 inkscape:connector-curvature="0"
                 id="path22"
                 d="m 408.51568,191.68648 c 0,1.18 -0.79,2 -2.49,2.49 a 118,118 0 0 1 -18.5,0.79 129.71,129.71 0 0 1 -18.28,-0.51 5.64,5.64 0 0 1 -4.3,-4.47 c -2.21,-9.56 -4,-14.66 -5.26,-15.34 a 223.81,223.81 0 0 0 -26.66,-0.67 76.34,76.34 0 0 0 -18,0.9 27,27 0 0 0 -3.79,10.64 c -1.25,5.66 -2.77,8.49 -4.59,8.94 a 171,171 0 0 1 -22.63,0.79 c -10.13,0 -15.16,-1 -15.16,-2.88 0,-1.88 7.47,-22.92 22.63,-63.55 q 24.33,-65.92 26.43,-72.54 c 0.79,-2.49 1.75,-3.79 2.82,-3.79 a 62.43,62.43 0 0 1 8.27,0.51 58.32,58.32 0 0 0 8.43,0.51 76,76 0 0 0 7.92,-0.34 75.13,75.13 0 0 1 7.81,-0.34 c 1.75,0 2.37,1.07 3.45,3.28 q 4.92,10.41 28.29,71.58 23.37,61.17 23.61,64 z m -70.51,-90.54 c -1.41,2.89 -3.73,9.22 -7.07,19 a 104.71,104.71 0 0 0 -5.38,18.22 c 0,1.18 2,1.86 6,2 h 10.16 c 4.47,0 6.79,-0.57 7.24,-1.59 a 3.35,3.35 0 0 0 0,-1.41 96.53,96.53 0 0 0 -4.58,-18.11 134.91,134.91 0 0 0 -6.34,-18.11 z"
                 class="cls-2" />
              <path
                 style="fill:#010101"
                 inkscape:connector-curvature="0"
                 id="path24"
                 d="m 543.58568,121.18648 a 74.39,74.39 0 0 1 -18.87,50.93 61.24,61.24 0 0 1 -46.62,19.86 h -31.73 c -3.22,0 -8.14,0 -14.65,-0.29 -6.51,-0.29 -11.32,-0.28 -14.66,-0.28 -1.92,0 -2.88,-0.79 -2.88,-2.32 0,-7.24 0.28,-18.22 0.85,-32.88 0.57,-14.66 0.79,-25.57 0.79,-32.81 0,-7.24 0,-19.07 -0.79,-34.3 -0.79,-15.23 -0.85,-26.59 -0.85,-33.95 0,-1.35 1,-2.2 2.88,-2.49 4.7,-0.51 12.4,-0.79 23.15,-0.79 q 30.6,0 39.61,0.91 a 75.66,75.66 0 0 1 36.9,11.94 60.2,60.2 0 0 1 19.86,25.4 74.66,74.66 0 0 1 7.01,31.07 z m -38.14,0 a 38.65,38.65 0 0 0 -10,-27.5 34.81,34.81 0 0 0 -26.87,-11 c -10.19,0 -15.34,1.36 -15.34,4.08 v 70.16 q 0,4.24 16,4.25 a 34,34 0 0 0 27.05,-11.32 42.5,42.5 0 0 0 9.16,-28.67 z"
                 class="cls-2" />
              <path
                 style="fill:#010101"
                 inkscape:connector-curvature="0"
                 id="path26"
                 d="m 679.01568,190.29648 c 0,1.19 -0.85,2 -2.49,2.49 a 118,118 0 0 1 -18.5,0.79 129.14,129.14 0 0 1 -18.34,-0.79 5.33,5.33 0 0 1 -4.24,-4.47 c -2.27,-9.56 -4,-14.66 -5.32,-15.34 a 223.59,223.59 0 0 0 -26.65,-0.67 76.39,76.39 0 0 0 -18,0.9 27.19,27.19 0 0 0 -3.76,10.64 c -1.24,5.66 -2.77,8.49 -4.52,8.94 a 171.18,171.18 0 0 1 -22.64,0.79 c -10.18,0 -15.22,-1 -15.22,-2.88 0,-1.88 7.47,-22.92 22.63,-63.55 q 24.39,-65.93 26.49,-72.54 c 0.79,-2.49 1.69,-3.79 2.77,-3.79 a 63.54,63.54 0 0 1 8.32,0.51 58,58 0 0 0 8.37,0.51 75.92,75.92 0 0 0 7.92,-0.34 75.23,75.23 0 0 1 7.81,-0.34 c 1.76,0 2.43,1.07 3.45,3.28 q 4.93,10.41 28.3,71.58 23.37,61.17 23.62,64.28 z m -70.56,-90.54 c -1.36,2.89 -3.74,9.23 -7.08,19 a 102.83,102.83 0 0 0 -5.32,18.22 c 0,1.19 2,1.87 5.95,2 h 10.12 c 4.48,0 6.8,-0.57 7.3,-1.58 a 4.83,4.83 0 0 0 0,-1.42 96.72,96.72 0 0 0 -4.58,-18.11 127.5,127.5 0 0 0 -6.39,-18.1 z"
                 class="cls-2" />
            </g>
          </g>
          <g
             id="logo"
             transform="translate(0,4.0332081)">
            <g
               id="bg">
              <path
                 class="cls-3"
                 d="m 131.12,210.21 a 92,92 0 0 1 -36,-7.27 92.61,92.61 0 1 1 101.47,-150.78 94.09,94.09 0 0 1 11.31,13.71 92.51,92.51 0 0 1 0,103.51 94.54,94.54 0 0 1 -11.31,13.7 92.27,92.27 0 0 1 -65.47,27.11 z"
                 id="path29"
                 inkscape:connector-curvature="0"
                 style="fill:#ffffff" />
            </g>
            <g
               id="m" />
            <g
               id="a">
              <path
                 class="cls-5"
                 d="m 117.5,103.84 a 128.55,128.55 0 0 1 -9.5,22.78 27.64,27.64 0 0 1 -1.66,2.76"
                 id="path37"
                 inkscape:connector-curvature="0"
                 style="fill:none;stroke:#ffffff;stroke-width:14.85000038px;stroke-linecap:round;stroke-miterlimit:10" />
              <path
                 class="cls-5"
                 d="m 145,104.66 a 128.51,128.51 0 0 0 9.47,22.78 26.41,26.41 0 0 0 1.66,2.75"
                 id="path39"
                 inkscape:connector-curvature="0"
                 style="fill:none;stroke:#ffffff;stroke-width:14.85000038px;stroke-linecap:round;stroke-miterlimit:10" />
              <g
                 id="g71">
                <path
                   id="path31"
                   d="m 131.12,32.48 a 85.18,85.18 0 0 1 17.15,168.59 86.1,86.1 0 0 1 -34.37,0 84.89,84.89 0 0 1 -30.39,-12.76 85.89,85.89 0 0 1 -23,-23 84.32,84.32 0 0 1 -12.8,-30.42 86.1,86.1 0 0 1 0,-34.37 A 84.25,84.25 0 0 1 60.51,70.1 85.43,85.43 0 0 1 98,39.16 a 84.58,84.58 0 0 1 16,-5 86.17,86.17 0 0 1 17.18,-1.73 m 0,-14.85 a 100,100 0 1 0 100,100 100,100 0 0 0 -100.03,-100 z"
                   class="cls-2"
                   style="fill:#010101"
                   inkscape:connector-curvature="0" />
                <path
                   id="path34"
                   d="M 176.78,172 V 103.51 A 183.29,183.29 0 0 0 154,122.31 c -1.36,1.32 -2.69,2.66 -4,4 -0.91,1 -1.82,1.9 -2.71,2.86 a 184.23,184.23 0 0 0 -16.11,20 v 0 a 183,183 0 0 0 -16.1,-20 c -0.9,-1 -1.8,-1.92 -2.72,-2.86 q -2,-2 -4,-4 A 183.87,183.87 0 0 0 85.49,103.51 V 172"
                   class="cls-4"
                   style="fill:none;stroke:#010101;stroke-width:14.85000038px;stroke-linecap:round;stroke-miterlimit:10"
                   inkscape:connector-curvature="0" />
                <path
                   id="path41"
                   d="m 85.46,172 v 0 a 182.4,182.4 0 0 0 18,-22.82 q 2.51,-3.76 4.84,-7.66 l 6.7,-12.31 v 0 c 0.47,-1 0.93,-1.91 1.39,-2.86 a 183.42,183.42 0 0 0 9,-22.83 178,178 0 0 0 5.79,-22.52 v 0 a 174.53,174.53 0 0 0 5.62,22.5 181.88,181.88 0 0 0 9,22.83 c 0.46,1 0.92,1.91 1.39,2.86 q 3.12,6.28 6.72,12.3 2.33,3.9 4.85,7.67 a 184.27,184.27 0 0 0 18,22.82 v 0"
                   class="cls-4"
                   inkscape:connector-curvature="0"
                   style="fill:none;stroke:#010101;stroke-width:14.85000038px;stroke-linecap:round;stroke-miterlimit:10" />
              </g>
            </g>
          </g>
        </g>
      </g>
    </g>
  </g>
</svg>
