<svg xmlns="http://www.w3.org/2000/svg" viewBox="0 0 221.7 234.62"><defs><style>.cls-1{fill:#010101;}.cls-2{fill:#fff;}.cls-3,.cls-4{fill:none;stroke-linecap:round;stroke-miterlimit:10;stroke-width:14.85px;}.cls-3{stroke:#010101;}.cls-4{stroke:#fff;}</style></defs><title>v3</title><g id="Layer_2" data-name="Layer 2"><g id="Layer_1-2" data-name="Layer 1"><g id="Layer_1-2-2" data-name="Layer 1-2"><g id="v2.2"><g id="adamaduka"><path class="cls-1" d="M100.57,233.52q0,.54-.51.54H93.84c-.34,0-.51-.2-.51-.61,0-1.18,0-3,.13-5.33s.13-4.14.13-5.32c0-.34,0-.52-.16-.55a50.25,50.25,0,0,0-2.35,5.43l-2.53,6.2a.8.8,0,0,1-.44.48H87.4c-.61,0-1-.12-1.09-.36-.63-1.28-1.46-3.16-2.49-5.62s-1.93-4.48-2.48-5.64a.53.53,0,0,0-.16-.2.9.9,0,0,0-.12.51c0,1.15,0,2.87.08,5.17s.09,4,.09,5.17c0,.41-.16.61-.49.61H74.87c-.23,0-.38,0-.43-.11a.8.8,0,0,1-.08-.4c0-1.27.06-3.19.18-5.75s.19-4.48.19-5.76-.06-3.91-.18-7.65c0-1-.06-2.42-.16-4.34v-.3c0-.23.23-.35.74-.35s1.61,0,2.9-.06,2.25-.06,2.9-.06c.13,0,.31.25.54.74l5.13,11.26c.37.77.67,1.15.92,1.15s.4-.44.82-1.32q1.78-3.69,5.26-11.13c.2-.45.42-.68.65-.68s.85,0,1.54,0,1.2.05,1.55.05a8.19,8.19,0,0,0,1.35-.09,7.92,7.92,0,0,1,1.34-.08c.34,0,.53.14.53.42,0,1.38,0,3.45-.15,6.19s-.15,4.82-.15,6.2.06,3.19.16,5.75S100.57,232.25,100.57,233.52Z"/><path class="cls-1" d="M126.69,233.21c0,.22-.14.36-.44.44a21,21,0,0,1-3.27.14,23.21,23.21,0,0,1-3.23-.14,1,1,0,0,1-.76-.79c-.39-1.68-.7-2.59-.93-2.7a33.69,33.69,0,0,0-4.71-.13,13.55,13.55,0,0,0-3.18.16,4.82,4.82,0,0,0-.67,1.88c-.22,1-.49,1.5-.81,1.58a29.72,29.72,0,0,1-4,.14c-1.8,0-2.69-.17-2.69-.51s1.32-4,4-11.23q4.31-11.66,4.68-12.81c.14-.45.3-.67.49-.67a11.24,11.24,0,0,1,1.47.09,10.28,10.28,0,0,0,1.48.09,11.54,11.54,0,0,0,1.4-.07,11,11,0,0,1,1.38-.06c.31,0,.43.2.61.58q.87,1.85,5,12.66T126.69,233.21Zm-12.46-16c-.25.52-.66,1.64-1.25,3.36a18.9,18.9,0,0,0-1,3.22c0,.21.36.32,1.06.35h1.79c.79,0,1.2-.09,1.28-.28a.53.53,0,0,0,0-.25,17.35,17.35,0,0,0-.81-3.19,24,24,0,0,0-1.12-3.22Z"/><path class="cls-1" d="M151,221a13.14,13.14,0,0,1-3.33,9,10.74,10.74,0,0,1-8.24,3.56h-8.2c-1.15,0-2-.06-2.59-.06-.34,0-.51-.13-.51-.4,0-1.29,0-3.23.15-5.81s.15-4.52.15-5.81,0-3.37-.15-6.06-.15-4.7-.15-6c0-.25.17-.4.51-.44a39.93,39.93,0,0,1,4.09-.14q5.41,0,7,.16a13.48,13.48,0,0,1,6.52,2.1,10.77,10.77,0,0,1,3.5,4.43A13.1,13.1,0,0,1,151,221Zm-6.74,0a6.73,6.73,0,0,0-1.77-4.85,6.15,6.15,0,0,0-4.75-2q-2.7,0-2.7.72v12.39c0,.51.93.76,2.81.76a6,6,0,0,0,4.78-2A7.42,7.42,0,0,0,144.27,221Z"/><path class="cls-1" d="M173.18,225.08q0,4.48-1.07,6.12-2,3-9.83,3a20.55,20.55,0,0,1-5.47-.55,5.43,5.43,0,0,1-4-3.35,13.75,13.75,0,0,1-.46-4.33c0-.48,0-1.19.06-2.14s0-1.66,0-2.13c0-1.33-.07-3.37-.19-6.12s-.2-4.78-.2-6.1c0-.28.13-.42.37-.42.72,0,1.8,0,3.25.09s2.52.09,3.24.09c.29,0,.44.13.44.38q0,2.32-.15,7c-.1,3.12-.15,5.46-.15,7a7.92,7.92,0,0,0,.58,3.73c.51.87,1.59,1.31,3.23,1.31,2.4,0,3.61-1.16,3.61-3.49,0-1.7-.05-4.25-.13-7.65s-.13-6-.12-7.65c0-.36.15-.54.44-.54.69,0,1.73,0,3.13-.09s2.44-.09,3.13-.09q.51,0,.51.42,0,2-.17,6.1c-.12,2.74-.17,4.78-.17,6.12v1.7C173.06,224.25,173.18,224.71,173.18,225.08Z"/><path class="cls-1" d="M196,232.58a1,1,0,0,1-.65,1,13,13,0,0,1-2.78.18,20.79,20.79,0,0,1-3.16-.18,2.18,2.18,0,0,1-.63-.18,1.52,1.52,0,0,1-.37-.5q-1.29-2.35-2.55-4.71a34.58,34.58,0,0,0-2.5-4.19c-1.26.46-1.9.79-1.9,1,0,.88,0,2.2.11,4s.1,3.11.1,4c0,.36-.15.57-.47.61a24.29,24.29,0,0,1-3.3.14,20,20,0,0,1-3-.14q-.51-.11-.51-.54c0-1.27.06-3.18.19-5.73s.18-4.47.18-5.75-.06-3.4-.17-6.13-.18-4.76-.18-6.12c0-.26.12-.39.37-.39h1.64c.73,0,1.28.06,1.65.06s.93,0,1.67-.06a14.71,14.71,0,0,1,1.65,0c.2,0,.3.11.3.32,0,.87,0,2.18-.13,3.93s-.14,3.06-.14,3.93.28,1.51.83,1.51a4.44,4.44,0,0,0,3.25-1.15,9,9,0,0,0,1.71-3.11q.57-1.71,1.85-5a.77.77,0,0,1,.79-.44h1.38c.62,0,1.07.06,1.38.06h2.81c.28,0,.42.13.42.4a13.1,13.1,0,0,1-.74,2.83q-2.19,6.65-5,8.3c-.38.22-.58.4-.58.54s1.09,1.75,3.25,5.28S196,231.91,196,232.58Z"/><path class="cls-1" d="M221.7,233.27c0,.22-.15.36-.44.44a18.8,18.8,0,0,1-3.27.14,20.67,20.67,0,0,1-3.24-.14.94.94,0,0,1-.75-.79c-.4-1.68-.71-2.59-.93-2.7a37,37,0,0,0-4.71-.13,14.85,14.85,0,0,0-3.19.16,5.09,5.09,0,0,0-.66,1.88c-.23,1-.5,1.5-.81,1.58a28.11,28.11,0,0,1-4,.14c-1.79,0-2.69-.17-2.69-.51s1.32-4,4-11.23q4.32-11.64,4.68-12.81c.14-.45.3-.67.49-.67a11.15,11.15,0,0,1,1.47.09,10.28,10.28,0,0,0,1.48.09,11.54,11.54,0,0,0,1.4-.07,11,11,0,0,1,1.38-.06c.3,0,.43.2.62.58q.87,1.86,5,12.66T221.7,233.27Zm-12.47-16c-.24.52-.66,1.64-1.24,3.36a18,18,0,0,0-1,3.22c0,.21.35.32,1.05.35h1.8c.8,0,1.2-.09,1.28-.28a.53.53,0,0,0,0-.25,16.93,16.93,0,0,0-.8-3.19,23.25,23.25,0,0,0-1.14-3.22Z"/><path class="cls-1" d="M24.68,234c0,.21-.14.36-.44.44a22.31,22.31,0,0,1-3.27.14,24.85,24.85,0,0,1-3.23-.09,1,1,0,0,1-.76-.79c-.39-1.69-.71-2.59-.93-2.71a37,37,0,0,0-4.71-.12,13,13,0,0,0-3.18.16,4.82,4.82,0,0,0-.67,1.88c-.22,1-.49,1.5-.81,1.58a31.46,31.46,0,0,1-4,.14c-1.79,0-2.68-.17-2.68-.51s1.32-4,4-11.23q4.31-11.66,4.67-12.82c.14-.44.31-.67.5-.67a11,11,0,0,1,1.46.09,10.33,10.33,0,0,0,1.49.09,13.44,13.44,0,0,0,1.4-.06,13.3,13.3,0,0,1,1.38-.06c.31,0,.42.19.61.58q.87,1.83,5,12.65T24.68,234ZM12.22,218c-.25.51-.66,1.63-1.25,3.35a18.9,18.9,0,0,0-1,3.22c0,.21.35.33,1.06.35h1.79c.79,0,1.2-.1,1.28-.28a.53.53,0,0,0,0-.25,17.25,17.25,0,0,0-.81-3.2,23.29,23.29,0,0,0-1.12-3.2Z"/><path class="cls-1" d="M48.55,221.52a13.2,13.2,0,0,1-3.33,9A10.86,10.86,0,0,1,37,234H31.37c-.57,0-1.44,0-2.59-.05s-2,0-2.59,0c-.34,0-.51-.14-.51-.41,0-1.28.05-3.22.15-5.81s.14-4.52.14-5.8,0-3.37-.14-6.06-.15-4.7-.15-6c0-.24.17-.39.51-.44.83-.09,2.19-.14,4.09-.14q5.41,0,7,.16a13.29,13.29,0,0,1,6.52,2.11A10.6,10.6,0,0,1,47.31,216,13.18,13.18,0,0,1,48.55,221.52Zm-6.74,0A6.84,6.84,0,0,0,40,216.66a6.1,6.1,0,0,0-4.75-1.95c-1.8,0-2.71.24-2.71.72v12.4q0,.75,2.82.75a6,6,0,0,0,4.78-2A7.53,7.53,0,0,0,41.81,221.52Z"/><path class="cls-1" d="M72.48,233.73c0,.21-.15.36-.44.44a21,21,0,0,1-3.27.14,23.42,23.42,0,0,1-3.24-.14,1,1,0,0,1-.75-.79c-.4-1.69-.71-2.59-.94-2.71a41.1,41.1,0,0,0-4.71-.12,13.55,13.55,0,0,0-3.18.16,4.82,4.82,0,0,0-.67,1.88c-.22,1-.49,1.5-.8,1.58a31.33,31.33,0,0,1-4,.14c-1.8,0-2.69-.17-2.69-.51s1.32-4.05,4-11.23q4.32-11.65,4.68-12.82c.14-.44.3-.67.49-.67a11.24,11.24,0,0,1,1.47.09,10.28,10.28,0,0,0,1.48.09,13.44,13.44,0,0,0,1.4-.06,13.3,13.3,0,0,1,1.38-.06c.31,0,.43.19.61.58q.87,1.84,5,12.65T72.48,233.73ZM60,217.73c-.24.51-.66,1.63-1.25,3.35a18.87,18.87,0,0,0-.94,3.22c0,.21.35.33,1,.35h1.79c.79,0,1.2-.1,1.29-.28a.53.53,0,0,0,0-.25,16.15,16.15,0,0,0-.81-3.2,21.73,21.73,0,0,0-1.13-3.2Z"/></g><g id="logo"><g id="bg"><path class="cls-2" d="M109.87,192.63a92,92,0,0,1-36-7.27A92.61,92.61,0,1,1,175.34,34.58a94.09,94.09,0,0,1,11.31,13.71,92.51,92.51,0,0,1,0,103.51,93.9,93.9,0,0,1-11.31,13.7,92.25,92.25,0,0,1-65.47,27.11Z"/><path class="cls-1" d="M109.87,14.9A85.18,85.18,0,0,1,127,183.49a86.1,86.1,0,0,1-34.37,0,85,85,0,0,1-30.39-12.76,85.89,85.89,0,0,1-23-23,84.68,84.68,0,0,1-12.8-30.42,86.46,86.46,0,0,1,0-34.37,84.32,84.32,0,0,1,12.8-30.42A84.81,84.81,0,0,1,109.9,14.85M109.9,0a100,100,0,1,0,100,100A100,100,0,0,0,109.9,0Z"/></g><g id="m"><path class="cls-3" d="M155.53,154.41V85.93a184,184,0,0,0-22.81,18.8c-1.36,1.32-2.69,2.66-4,4-.91,1-1.82,1.9-2.71,2.86a184.23,184.23,0,0,0-16.11,20h0a183,183,0,0,0-16.1-20c-.9-1-1.8-1.92-2.72-2.86q-2-2-4-4a183.14,183.14,0,0,0-22.87-18.8v68.48"/></g><g id="a"><path class="cls-4" d="M96.25,86.26A127.81,127.81,0,0,1,86.77,109a25.88,25.88,0,0,1-1.66,2.76"/><path class="cls-4" d="M123.79,87.08a128.51,128.51,0,0,0,9.47,22.78,26.41,26.41,0,0,0,1.66,2.75"/><path class="cls-3" d="M64.21,154.4h0a182.4,182.4,0,0,0,18-22.82q2.52-3.77,4.84-7.66l6.73-12.29h0c.47-.95.93-1.91,1.39-2.86a181.88,181.88,0,0,0,9-22.83,176.29,176.29,0,0,0,5.76-22.5h0a175.77,175.77,0,0,0,5.62,22.5,181.88,181.88,0,0,0,9,22.83c.46,1,.92,1.91,1.39,2.86q3.12,6.28,6.72,12.3,2.34,3.9,4.85,7.67a184.27,184.27,0,0,0,18,22.82h0"/></g></g></g></g></g></g></svg>